<?xml version="1.0" standalone="no"?>
<!DOCTYPE svg PUBLIC "-//W3C//DTD SVG 20010904//EN"
 "http://www.w3.org/TR/2001/REC-SVG-20010904/DTD/svg10.dtd">
<svg version="1.0" xmlns="http://www.w3.org/2000/svg"
 width="120.000000pt" height="120.000000pt" viewBox="0 0 120.000000 120.000000"
 preserveAspectRatio="xMidYMid meet">

<g transform="translate(0.000000,120.000000) scale(0.100000,-0.100000)"
fill="#000000" stroke="none">
<path d="M583 1174 c-3 -9 -1 -25 6 -35 13 -21 5 -126 -12 -146 -6 -9 -5 -13
4 -13 10 -1 9 -4 -3 -14 -11 -8 -15 -21 -12 -37 5 -21 3 -19 -15 8 -35 55
-100 114 -154 139 -61 28 -163 32 -212 9 l-30 -15 35 8 c64 13 143 6 198 -18
55 -24 161 -126 163 -158 2 -28 -2 -47 -13 -53 -6 -4 -8 -19 -6 -33 3 -14 1
-26 -3 -26 -5 0 -9 -11 -9 -25 0 -30 0 -30 -45 -8 l-35 17 0 69 c0 60 -3 73
-23 91 -25 23 -71 33 -65 14 3 -7 18 -19 35 -27 27 -14 30 -19 25 -56 -7 -63
14 -124 49 -143 58 -32 66 -40 49 -52 -12 -7 -38 13 -120 96 l-106 104 -26
-27 -26 -28 82 -87 82 -87 -4 -73 c-4 -79 -7 -85 -37 -90 -18 -3 -20 2 -17 41
2 24 8 54 12 66 7 18 3 28 -19 49 -15 14 -30 26 -34 26 -3 0 -14 -26 -23 -57
-31 -105 -4 -255 58 -321 23 -24 18 -35 -18 -46 -18 -5 -27 2 -52 42 -80 124
-90 250 -31 388 l17 42 -28 27 -28 27 -15 -23 c-58 -90 -75 -270 -37 -392 62
-200 253 -337 469 -337 209 0 417 171 462 381 22 104 -2 275 -49 347 l-15 23
-28 -28 -29 -28 26 -64 c52 -127 27 -291 -59 -387 -16 -19 -22 -20 -47 -11
l-28 11 29 35 c55 69 80 186 60 281 -18 84 -24 90 -60 56 -25 -24 -28 -32 -20
-53 11 -30 12 -103 1 -103 -29 0 -41 28 -44 103 l-2 77 82 83 82 83 -29 28
-30 29 -102 -107 c-55 -58 -105 -106 -110 -106 -22 0 -6 36 21 49 47 20 65 56
67 129 1 60 3 65 32 83 17 10 31 23 31 29 0 14 -30 7 -64 -15 -25 -17 -28 -23
-23 -59 9 -68 -3 -106 -41 -121 -31 -14 -32 -13 -32 10 0 14 -6 25 -13 25 -9
0 -12 10 -9 30 3 18 0 30 -7 30 -6 0 -11 13 -11 28 0 55 92 153 177 188 42 18
129 23 183 11 35 -8 35 -8 10 7 -33 20 -134 20 -193 0 -52 -18 -135 -86 -168
-140 -12 -19 -24 -32 -27 -29 -3 3 0 11 6 17 17 17 15 28 -4 28 -10 0 -14 6
-11 15 4 8 2 17 -3 20 -14 9 -13 145 1 145 6 0 9 10 7 22 -4 28 -36 36 -45 12z
m207 -632 c0 -63 2 -68 30 -87 31 -21 35 -31 21 -54 -7 -11 -16 -6 -40 20 -30
32 -32 37 -28 102 4 54 2 67 -11 67 -12 0 -12 3 -2 15 21 25 30 6 30 -63z
m-365 49 c-3 -11 -1 -22 5 -26 5 -3 10 -27 10 -53 -1 -40 -6 -53 -39 -89 l-38
-42 -12 26 c-11 24 -8 38 7 38 4 1 17 7 30 15 19 13 22 23 22 82 0 42 4 68 11
68 6 0 8 -8 4 -19z m15 -236 c0 -30 3 -35 24 -35 18 0 25 -7 29 -27 7 -37 3
-39 -30 -18 -82 52 -100 110 -35 114 7 1 12 -12 12 -34z m354 29 c27 -10 18
-40 -24 -78 -47 -42 -60 -45 -60 -11 0 21 5 25 30 25 28 0 30 3 30 35 0 38 0
38 24 29z m-383 -174 c15 -12 45 -27 66 -34 24 -8 45 -25 57 -46 l20 -33 -40
7 c-43 8 -126 46 -164 75 -20 16 -22 21 -11 35 18 21 37 20 72 -4z m449 5 c10
-12 8 -18 -11 -34 -35 -29 -119 -68 -163 -76 l-38 -8 15 29 c9 18 41 42 83 65
77 42 96 46 114 24z"/>
</g>
</svg>
