<?xml version="1.0" encoding="utf-8"?>
<!-- Generator: Adobe Illustrator 28.1.0, SVG Export Plug-In . SVG Version: 6.00 Build 0)  -->
<svg version="1.1" id="Слой_1" xmlns="http://www.w3.org/2000/svg" xmlns:xlink="http://www.w3.org/1999/xlink" x="0px" y="0px"
	 viewBox="86 229 1770 623" style="enable-background:new 0 0 1920 1080;" xml:space="preserve">
<style type="text/css">
	.st0{fill:#0A0B0D;}
	.st1{fill:#124B37;}
</style>
<g>
	<path class="st0" d="M517.9,576.2c1.9,25.8,0.9,51.2-7.7,75.9c-8,23.1-19.5,44.1-36.5,61.9c-2.1,2.2-4.3,4.4-6,7.8
		c4.7,0.5,8.9,1.2,12.9,2.5c5.2,1.8,10.1,4.2,14.7,7.1c2.1,1.3,3.5,1.1,5-0.7c1.8-2.1,4-4,5.7-6.2c24.1-30.3,39.4-64.4,44.9-102.8
		c5.6-38.8,0.2-76.1-15.4-112c-2.5-5.8-5-11.5-8-17c-2.7-4.9-2.4-8,1.5-12.1c6.3-6.5,12.8-13,19.3-19.3c1.1-1.1,2-2,2.8-3.4
		c1.1-2.1,2.6-2.3,4.4-0.8c0.8,0.6,1.4,1.4,1.9,2.3c15.3,25.5,25.7,52.7,31.3,82c4.2,22.1,5,44.3,4.2,66.7
		c-2,52.6-19.9,99.3-51.8,141c-36.4,47.5-84.4,77.2-142.1,91.8c-10.6,2.7-21.4,4.2-32.3,5.2c-7,0.7-14.1,0.1-21.1,1.2
		c-4.3,0.7-8.9-0.6-13.3-0.9c-14.2-1-28.4-1.9-42.4-4.9c-21.4-4.5-42.1-11.3-61.4-21.9c-12.3-6.8-24.5-13.7-36-21.9
		c-6.3-4.5-12.1-9.8-18-14.7c-17-14.1-30.2-31.5-42.4-49.6c-19.3-28.6-31.4-60.2-37.3-94.2c-4.2-24.5-5.1-49.1-2.5-73.7
		c3.5-32.6,12.2-63.9,28.1-92.9c2.4-4.3,4.6-8.8,7.1-13.1c2.4-4.2,2.9-4,6.4-1c6.1,5.1,11.3,11.1,17.6,16c9.9,7.7,10.5,9.6,4.5,20.8
		c-10.5,19.8-16.8,40.9-21.6,62.6c-2.8,12.5-3.5,25.2-3.3,38c0.5,43.2,14.4,82,38.6,117.4c4.6,6.7,9.9,12.8,15.5,18.8
		c1.5,1.6,2.6,1.9,4.5,0.5c7-4.8,14.8-8,23.1-9.9c3-0.7,3.3-1.4,1.7-3.9c-0.5-0.8-1.2-1.6-1.9-2.3c-15.4-14.9-25.6-33.1-34-52.5
		c-6.5-15-10.3-30.7-12.1-46.9c-0.9-7.7-1.8-15.4-2.2-23.2c-0.2-4.7,0.1-9.2,1.5-13.7c1.4,1.8,0.9,3.8,0.8,5.8
		c-0.4,11.6,0.3,23.1,2.2,34.5c2.5,14.5,6.3,28.6,12.1,42.2c8.3,19.6,20.4,36.5,34.5,52.2c0.8,0.9,1.5,2.2,3.1,2
		c1.1-1.2,0.7-2.5,0.5-3.8c-1-5.7-1.6-11.4-1.8-17.2c-0.1-3.4,1-6.5,1-9.8c-0.1-5.5,0.8-10.9,2.2-16.1c1.2-4.6,0.9-8.7-1.4-12.9
		c-5-9-8.5-18.6-11-28.6c-0.3-1.3-0.6-3.1-1.5-3.6c-4.1-2.1-3.4-5.2-2.3-8.5c0.3-0.9,0-2,0.1-3c0.4-4.5-0.9-8.9-0.9-13.3
		c-0.1-7.1-0.1-14.1,0.7-21.2c1.4-12.4,4.3-24.3,8.5-36c1.8-5.1,1.8-6.4-2.4-9.8c-4.4-3.5-8.1-7.8-12.4-11.4c-3.8-3.1-7.2-6.6-11-10
		c-3.1,3.8-4.3,8-5.9,11.9c-7.1,16.8-12.3,34.1-13.4,52.4c-0.1,1.4,0,2.7-1.7,3.2c-0.6-12.2,2.4-23.9,5.2-35.7
		c2.7-11.1,7-21.7,12.3-31.8c2-3.8,3.9-4.4,6.9-1.7c8,7.2,15.8,14.6,23.7,21.9c1.9,1.8,2.6,4.1,2.5,6.7c-0.1,2-0.7,3.9-1.4,5.8
		c-7.2,18.1-10.2,36.9-9.1,56.3c0.1,2.1-0.1,4.3,0.1,6.4c0.3,3,1.5,3.5,3.7,1.8c6.6-5.1,14.2-8.4,22.1-11c4.3-1.5,3.9-0.6,3-5.1
		c-1.3-6.2-2.3-12.3-3-18.6c-1.7-16.9,0.4-33.3,5.5-49.4c0.9-3,0.4-4.7-1.7-6.9c-14.6-15.4-29.2-30.7-44.3-45.6
		c-11.8-11.6-23.5-23.4-35.2-35c-1.1-1.1-2.1-2.1-3.1-3.2c-3.4-4-3.6-6.7,0-10.4c7.3-7.5,14.7-14.8,22.1-22.1
		c2.7-2.7,3.4-2.6,6.2-0.1c0.9,0.8,1.7,1.6,2.5,2.4c33.5,33.4,67.1,66.9,100.6,100.3c1.2,1.2,2.3,3.6,4.1,3.2c3.2-0.7,6.7,0,9.6-2.1
		c0.3-0.2,0.6-0.4,0.7-0.6c1.3-3.5,1.2-7.1,0.6-10.7c-0.4-2.6-2.8-3.3-5.1-4c-13.4-4.4-25.5-11-35.3-21.2c-6.8-7.2-9.7-16.4-12-25.8
		c-2.6-10.5-3-21.3-2.6-32c0.1-3.3,0.4-6.6,0.5-9.9c0.1-5.3,0.8-10.5,3-15.5c1.3-2.8,0.8-4-2.2-4.7c-9.3-2.1-16.9-7.3-24.6-12.6
		c-1.8-1.2-3.4-2.6-4.9-4.2c-1.3-1.5-2.4-3.2-2.9-5.2c-0.6-2.6-1.4-5.8,0.7-7.5c2.1-1.6,4.6,0.6,6.7,1.9c1.7,1,3.2,2.4,4.8,3.5
		c1.5,1,2.9,2.3,4.8,2c0.6-0.8,0.6-1.7,0.5-2.5c-0.1-1.7-0.3-3.5,1.9-4c2.2-0.5,2.7,1.5,3.5,2.8c1.1,1.7,2.1,3.4,3.1,5.1
		c3,5,7.1,8.8,12.8,10.3c5.2,1.4,7,4.9,7.2,9.9c0.3,8.3-0.5,16.5-1.2,24.8c-0.9,10.9-0.9,21.8,0.7,32.7c0.5,3.3,0.7,6.6,0.6,9.9
		c-0.1,2.6,0.9,4.6,3.4,5.4c12.2,3.8,23.6,9.4,35.1,14.7c0.1,0.1,0.3-0.1,0.6-0.1c1.1-0.8,0.6-2,0.6-3.1c0-6.6,0-13.2,0-19.9
		c0-5-0.5-4.6,4.4-4.6c3.6,0,7.2,0,11.2,0c-0.8-2-2.5-2.1-3.6-2.8c-4.2-2.7-6.9-6-6-11.5c0.3-1.9,0-4,0.1-5.9c0.3-5.3,2.7-9,8-10.7
		c5.3-1.7,5.4-2.2,5.3-7.9c0-1.2-0.1-2.3,0.1-3.5c1.5-9-0.6-17.3-5.6-24.6c-27.4-39.9-61.6-71-110.1-82.4
		c-28.9-6.8-57.5-5.5-84.8,7.7c-0.6,0.3-1.2,0.6-1.8,0.9c-1.2,0.6-2.5,1.3-3.7,0.3c-1-0.9-0.7-4.7,0.4-5.6c1.3-1,2.7-1.9,4.2-2.6
		c15.5-7.7,31.9-11.9,49.1-12.3c14.1-0.3,28.2-0.4,42,3.2c25.2,6.4,47.6,18.1,67.5,35.2c16,13.8,29.3,29.6,40.9,47
		c2.3,3.4,4.2,7.1,6.2,10.7c1.3,2.3,2.8,4.3,6.1,5.7c0-4.8,0-9,0-13.2c0-1.6-0.8-1.9-2.2-2c-2.1-0.1-4.8,1-6.1-0.6
		c-1.4-1.7-0.5-4.5-0.5-6.7c-0.1-7.4,0-7.4,7.2-7.4c1.2,0,2.3,0,3.5,0c5.4,0,5.4,0,5.5-5.5c-0.3-0.2-0.5-0.4-0.8-0.4
		c-1.9-0.3-4.6,0.9-5.6-0.7c-1.5-2.3-0.6-5.5-0.5-8.2c0.1-1.7,1.8-1.5,3.1-1.7c3.9-0.7,4.1-0.7,3.8-4.6c-0.3-4,0.7-7.9-0.1-11.9
		c-0.2-1.2-0.1-2.6,0.8-3.3c3.5-2.7,2.8-6.7,2.5-10.1c-0.8-8.3,0.3-16.5,1.1-24.7c0.4-4.1,0.4-8.3,0.5-12.4c0-2.4-0.7-4.2-3-5
		c-6.1-2.2-6.9-7.4-7.2-12.9c-0.3-5.9,1.8-10.8,6.6-14.2c6.4-4.5,17.5-0.4,19.6,7.1c1,3.5,1.2,7.2,0.5,10.8c-1,4.9-3.6,8.5-8.5,10
		c-1,0.3-1.9,0.4-1.8,1.8c0,2.8-0.8,5.8,0.3,8.4c1.5,3.5,1.2,7.1,1.2,10.7c0.1,11.7-0.4,23.5,1.2,35.2c0.5,3.7,0.4,7.6,0.3,11.4
		c-0.1,2.1,0.3,3.3,2.7,3.7c4.3,0.6,4.2,0.8,4.3,5.1c0,0.7-0.1,1.3,0,2c0.3,2.4-0.5,3.8-3.3,3.5c-1.1-0.1-2.4-0.2-3.2,0.9
		c-0.9,1.2-0.7,2.5-0.3,3.8c0.4,1.2,1.5,1.1,2.5,1.1c4,0,8,0.1,11.9,0c2-0.1,3,0.5,2.9,2.8c-0.2,3.1-0.1,6.3,0,9.4
		c0.1,2.2-0.9,3-3,2.9c-0.8,0-1.7,0-2.5,0c-2.3-0.1-3.4,0.9-3.3,3.2c0.2,3.7-0.3,7.5,0.5,11.6c2.8-1.7,3.8-4,5-6.1
		c15-27.1,35.6-49.2,60.2-67.8c15.6-11.8,33.6-18.1,52.2-23.4c18.2-5.1,36.7-4.5,55.2-3.3c14,0.9,26.7,5.7,39,12.2
		c2.3,1.2,4.1,2.7,3.9,5.7c-0.2,1.9-1.1,2.7-2.9,2.3c-0.8-0.2-1.6-0.5-2.3-0.8c-22.9-11.6-47.3-14.5-72.4-10.9
		c-23.4,3.3-45.2,11.4-64.8,24.6c-15,10.1-28.6,22-40.3,35.9c-7.4,8.8-14.2,17.9-20.6,27.4c-2.7,4-4,8.2-3.8,13.1
		c0.2,5.5,0.2,10.9,0.1,16.4c0,1.8,0.6,2.4,2.3,2.9c11.9,3.6,13,14,9.8,23.7c-0.8,2.3-2.8,3.6-4.9,4.8c-1.1,0.6-2.2,1.2-3.2,2.7
		c3.7,0,7.4,0,11.1,0c3.8,0,3.8,0.1,3.8,3.7c0,7.8,0,15.5,0,23.2c1.5,0.9,2.7,0.2,3.9-0.3c5-2.2,10-4.3,14.9-6.6
		c5.5-2.6,11.2-5,17.1-6.4c2-0.4,2.6-1.2,2.8-3.2c0.7-6.6,2.5-13,1.7-19.7c0-0.3,0-0.7,0.1-1c3-14.1,0-28-1.4-41.9
		c-0.2-2-0.4-3.9-0.4-5.9c0-4.6,1.8-7.8,6.1-9.8c5.3-2.4,10.1-5.6,13.9-10.2c1.7-2,3-4.3,4.1-6.7c0.6-1.3,1.1-2.9,3.2-2.5
		c1.7,0.4,2.4,1.6,2.7,3.2c0.2,1,0.4,1.9,0.7,3.2c5-2.5,9-6.5,14.4-7.8c2.7,5.4,1.5,9.9-2.6,13.9c-3.5,3.4-7.2,6.4-11.6,8.5
		c-5.5,2.6-10.4,6.5-16.7,7.2c-1.4,0.1-1.9,1.4-1.8,2.6c0.1,1.6,0.3,3.3,0.8,4.9c1.5,4.5,2,9,2.1,13.7c0.4,10.4,0.7,20.8-0.4,31.2
		c-1.1,10.3-4,20.1-8.8,29.3c-2.9,5.7-7.5,10-12.7,13.7c-8.3,5.8-17.1,10.6-26.7,14c-4.6,1.6-4.6,1.6-4.9,6.7
		c-0.1,1.3-0.3,2.7-0.1,4c0.2,2.2-0.4,5,2.5,5.9c2.9,0.9,5.9,1.1,8.5-1c0.6-0.5,1.2-1.2,1.8-1.7c33.4-32.4,65.6-65.9,98-99.3
		c6.2-6.4,6.9-6.4,13-0.3c6.1,6.1,12.1,12.2,18.2,18.3c0.8,0.8,1.6,1.7,2.3,2.6c2.3,3.2,2.3,5.3-0.2,8.5c-1.2,1.5-2.7,2.9-4.1,4.3
		c-25.5,25.5-51.1,51-76.6,76.5c-4.4,4.4-4.4,4.4-2.1,9.8c3.8,9,5.5,18.3,5.6,28c0.1,5.6,0,11.3,0.1,16.9c0.2,9.4-1.2,18.4-4.3,27.4
		c2.1,1.5,4.7,1.5,7,2.3c5.5,1.9,10.5,4.7,15.6,7.6c4,2.3,5.3,1.6,5.4-3.1c0.7-18.8-1.3-37.3-8.1-55.1c-1.8-4.8-1.3-9.1,2.5-12.7
		c7.4-7.1,14.7-14.3,22.1-21.4c0.7-0.7,1.5-1.4,2.3-1.9c1.4-1,2.8-0.9,3.9,0.6c0.4,0.5,0.8,1.1,1.1,1.7c9.1,19.3,15.1,39.5,15.8,61
		c-0.3,0.3-0.5,0.6-0.8,0.9c-2-2.9-1.2-6.4-1.7-9.5c-2.3-15.3-6.8-29.8-12.7-44c-1-2.4-1.8-4.9-4.1-7c-8,7.9-15.7,15.8-23.9,23.1
		c-2.4,2.2-2.9,5.1-1.9,8.2c0.9,2.8,1.8,5.7,2.6,8.5c2.6,8.7,3.9,17.7,4.7,26.6c0.7,7.4,0.7,14.9-0.2,22.2c-0.7,5.5-1.7,10.8,3.3,15
		c0.8,0.7,1.3,1.6,0.7,2.7c-0.6,1.1-1.7,0.8-2.7,0.6c-3.9-0.6-3.9-0.6-4.9,3.1c-0.5,1.8-0.6,3.7-2.9,4.1c0-1,0-2,0.1-2.9
		c0.7-5.1,0.3-5.7-5.2-7.3c-1.2,1.8,0.3,4.3-1.6,6c-3.3-1.6-3.4-1.6-5.4-5.3c-3.3-6.3-8.4-10.5-14.8-13.3c-1.1-0.5-2.2-0.8-3.2-1.2
		c-2.6-1-3.9-2.8-3.8-5.7c0.2-4.5,0.2-8.9,0.5-13.4c0.7-11,1.6-22.1,1.2-33.2c-0.2-7.1-0.7-14.2-1.8-21.2c-0.5-3.3-1.9-3.9-4.7-2
		c-0.5,0.4-1,0.8-1.5,1.3c-3.1,3.2-6.3,6.3-9.4,9.5c-0.7,0.8-1.9,1.3-1.7,3.2c4.4,0,8.8,0,13.2,0c1.6,0,2.4,0.5,2.4,2.3
		c-0.1,2.8-0.1,5.6,0,8.4c0,1.6-0.5,2.3-2.3,2.5c-4.7,0.5-4.7,0.6-4.7,5.3c0,14.7,0.2,29.4-0.2,44.1c-0.2,6.7,2.1,11.7,6.8,16.2
		c9.4,9,19.7,17.3,26.6,29.2c1.8-2.7,2.6-5.4,3.7-7.9c1.7-4.3,2.9-8.8,5.9-12.5c1.2,1.2,0.6,2.4,0.2,3.6c-2.2,6.4-4.3,12.9-7.6,18.8
		c-1.6,2.9-2.2,6-1.5,9.1c1.9,7.9,3.4,15.7,4.1,23.8c0.6,6.6,1.1,13.1-0.1,19.7c-0.4,2.2-0.4,4.4,0.2,7.5c4.6-5.3,8.9-9.8,12.7-14.7
		c13.6-18,23.7-37.7,29.5-59.6c4.2-16,6.9-32.2,6.2-48.9c-0.2-5,0-9.9,0-14.9l0.4,0L517.9,576.2z M400.3,510.3
		c5.9,1.2,11.8,1.8,17.8,2.5c6,0.7,12.2,0.8,18,3c4.8,1.8,8.5,0.7,12-2.9c9.9-10.2,20.1-20.1,30.1-30.2c16.6-17,34.1-33.2,50.1-50.9
		c2.7-3,3.1-2.5-0.1-5.7c-6-6-11.9-11.9-17.9-17.9c-5.1-5.1-5.1-5.1-10.3,0.1c-32.5,32.8-65.6,64.9-97.4,98.3
		C401.6,507.4,400.1,508.1,400.3,510.3z M283.8,509.8c-5.8-6.2-11-12.2-16.6-17.8c-28.5-28.3-56.2-57.4-85.6-84.8
		c-3.9-3.6-3.7-3.4-7.9,0.2c-5.8,4.9-10.9,10.5-16.1,16.1c-5.4,5.8-5.5,5-0.1,10.4c27.1,27.1,54.3,54.3,81.4,81.4
		c0.7,0.7,1.4,1.4,2.1,2.1c0.9,0.9,1.8,1.3,3.1,0.7c8.5-4,17.8-4.4,27-5.4C275.1,512.2,279.3,511.8,283.8,509.8z M317.6,800.2
		c-5.1-7.3-9.1-14.7-11.6-22.8c-2.1-6.5-5.7-9.6-12.6-11.2c-16.8-3.9-32-12-46.7-21.1c-6.9-4.3-13.5-8.8-19.7-13.9
		c-1.2-1-2.1-0.4-3.2-0.1c-6.4,2.1-11.9,5.5-16.3,10.8c-6.1,7.5-6.4,7.5,1.4,13.8c12.6,10.3,26.3,18.8,40.9,26.1
		c19.2,9.6,39.7,15.2,60.7,19.4C312.7,801.7,314.9,801.5,317.6,800.2z M368.9,800.4c1.7,1.2,3.3,1.3,4.9,0.6
		c3.7-1.5,7.7-1.9,11.6-2.6c32.4-6.3,61.2-20.5,87.2-40.5c3.1-2.4,6-5.2,8.7-8.1c1.6-1.7,1.7-3.4,0.2-5.3
		c-5.1-6.4-11.3-11-19.1-13.5c-3-1-5.7-0.5-7.9,1.5c-2.9,2.8-6.3,4.7-9.5,7.1c-8.7,6.4-18,11.5-27.5,16.4c-9,4.7-18.5,7.9-28.2,10.7
		c-3.6,1-6.2,2.8-7.6,6.5C378.3,782.6,374.3,791.7,368.9,800.4z M458.5,695.4c0-6.8,0.2-12.4-1-17.9c-0.2-0.9,0.1-2.1-1-2.6
		c-1.3-0.6-2.2,0.3-3,1.1c-1.4,1.4-2.7,2.9-3.9,4.4c-2.6,3-4.9,6.2-7.7,9c-8.3,8.6-17.5,16-27.7,22.2c-5,3-10.2,5.4-15.4,8
		c-3.8,1.9-6.1,4.9-6.9,9.1c-0.5,2.6-1.1,5.1-1.7,7.7c-1.6,7.1-3.4,14.1-5.6,21c-1.5,4.7-0.1,6,4.8,4.7c2.1-0.5,4.2-1.1,6.2-1.7
		c19.2-6.6,36.9-15.9,53.3-27.9c8.1-5.9,11.3-13.7,10.3-23.1C458.7,704.4,458.6,699.4,458.5,695.4z M229.4,677.1
		c-0.7,2.7-1.5,5.4-1.5,8.4c0.1,6.6,0.1,13.2,0,19.8c-0.1,4.9,0.3,9.8-0.7,14.8c-0.8,3.7,0.7,7.2,3.9,9.5
		c6.4,4.6,12.6,9.5,19.4,13.7c14.9,9.1,30.9,15.6,47.7,20c4,1,5.1,0,4-3.7c-3.1-10.1-5.7-20.3-7.9-30.6c-0.8-3.9-3.3-6.4-7.1-8.2
		c-21.6-9.7-40.3-23.1-54.7-42.1C231.8,677.9,231.2,676.8,229.4,677.1z M221.5,654.9c1.6-1.1,2.1-2.7,2.4-4.3c0.3-1.5,0.9-2.9,1.9-4
		c6.1-6.3,11.1-13.5,17.7-19.4c3.7-3.3,7.1-7,10.6-10.4c2.2-2.2,3.6-4.7,3.6-7.9c0-16.2-0.1-32.4-0.1-48.6c0-2-0.4-3-2.7-2.9
		c-1.9,0.1-4.4,1-5.7-0.5c-1.3-1.6-0.5-4.1-0.6-6.2c-0.1-1.3,0-2.6,0.1-4c0.1-2,1.1-2.8,3.2-2.8c2.3,0,4.7,0.5,7.4-0.6
		c-4.2-3.8-7.9-7.2-11.8-10.7c-1.8,3-1.9,5.8-1.8,8.5c0.1,4.1-0.1,8.2-1.2,12.3c-1.3,4.5-1.1,9.2-0.3,13.8
		c1.1,6.4,1.6,12.8,1.5,19.3c-0.1,4.8-0.1,9.6-0.1,14.4c0,4.1,0.1,4.1-3.7,5.5c-8.5,3.3-15.2,8.5-19.3,16.9c-0.3,0.6-0.6,1.2-1,1.7
		c-0.6,1-1.6,1.1-2.6,1c-1.2-0.1-1.5-1.1-1.8-2.1c-0.3-1.4,0.5-3-1-4.4c-0.9,0.6-1.8,1.2-2.7,1.9c-4.4,3.2-4.7,4.1-3,9.2
		c1.7,5,3.3,10,5.3,14.9C217.6,648.7,218.9,652.1,221.5,654.9z M289.7,717.2c-1.3-9.2-2.8-18.5-4-27.8c-0.3-2.4-1.2-3-3.4-2.9
		c-6.9,0.1-13.9,0.1-20.9,0c-3.7,0-3.7-0.1-3.7-3.8c0-11.6,0-23.2,0-34.7c0-1,0.6-2.3-0.9-3.2c-6.4,3.9-12.6,8.2-20.1,10.3
		c-1.9,0.5-2.8,2.1-2.8,4.2c0.1,3-0.5,5.9-1.7,8.7c-1,2.3-0.4,4.5,1.1,6.5c14.1,18.5,31.2,33.2,52.9,42.2
		C287.1,717,288.1,717.8,289.7,717.2z M430.7,645.4c0,2,0,2.9,0,3.9c0,10.7,0.1,21.5-0.1,32.2c-0.1,5.6,0.9,5.4-5.3,5.4
		c-6.4,0-12.9,0-19.3,0c-4.9,0-6.2,0.8-6.2,5.4c0.1,6-1.4,11.8-2.1,17.7c-0.2,2-1.3,4-0.5,6.5c10.4-4.5,20-9.9,28.4-17
		c9-7.5,17-16.1,24.6-25.1c1.7-2,3.1-4.3,3.6-6.9c0.9-4.3-1.4-10.9-4.7-12.1C442.8,653.2,437,649.7,430.7,645.4z M254.5,527.4
		c-1.3-0.5-2-0.6-2.4,0.1c-0.5,0.8-0.1,1.6,0.5,2.2c5.1,5.2,10.1,10.4,15.4,15.4c1.8,1.8,3.8,1,3.5-1.4c-0.8-6,1.6-8.6,7.5-9.2
		c2.9-0.3,3.5-4.1,1.4-6.2c-1.1-1.1-2.5-0.7-3.7-0.7C269,527.6,261.4,527.9,254.5,527.4z M433.2,527.5c-0.1-0.4-0.3-0.7-0.4-1.1
		c-4.6,1.5-9.3,1.1-14,1.1c-2.6,0-5.3,0.1-7.9,0c-2.5-0.1-3.6,1.2-4,3.4c-0.3,2.1,0.9,3.8,3.1,4.4c1.7,0.4,3.8-0.5,5.1,1.2
		c1.3,1.7,0.2,3.9,0.9,5.7c0.1,0.3,0.4,0.4,1.2,1.1C422.5,538.2,427.8,532.9,433.2,527.5z M392.9,535.5
		C392.9,535.5,392.9,535.5,392.9,535.5c1.7-0.1,3.3,0.1,4.9-0.1c2.1-0.3,3-1.9,2.9-4.9c0-3-0.9-4.6-3.2-4.7c-2.7-0.1-5.2-0.7-7.8-1
		c-2.7-0.4-3.6,0.6-3.8,3.2c-0.6,5.9,0.6,7.4,6.4,7.5C392.6,535.5,392.7,535.5,392.9,535.5z M294.7,534.6c1.1,0,2.3-0.1,3.4,0
		c2.6,0.2,3.5-1.1,3.3-3.5c-0.1-0.8,0.1-1.6,0-2.5c-0.4-2.9-2.1-4.3-5.1-3.9c-1.6,0.2-3.2,0.6-4.8,1c-3.6,0.7-4.3,1.6-3.9,5.4
		c0.3,3,0.8,3.4,4.6,3.5C293,534.7,293.8,534.6,294.7,534.6z M196.8,742.5c-0.5,0.1-0.9,0.6-0.8,1.3c0.1,0.8,0.8,1.1,1.4,0.9
		c0.6-0.2,1-0.9,0.7-1.6C198,742.6,197.7,742.2,196.8,742.5z"/>
	<path class="st1" d="M1418.5,574.3c-1.4,10.3-2.8,20.6-4.2,30.9c-2.9,21.3-5.7,42.6-8.6,63.9c-0.9,6.6-1.7,13.1-2.6,19.7
		c-0.5,3.8-0.5,3.8-4.7,3.8c-7.3,0-14.6,0-21.9,0c-4.7,0-4,0.7-4.8-4.2c-1.9-12.2-3.6-24.5-5.3-36.8c-3.4-23.6-6.8-47.1-10.2-70.7
		c-0.3-1.9-0.8-3.8-1.2-5.7c-0.7,1.9-0.4,4.1-0.4,6.2c0,35.1,0,70.2,0,105.3c0,1.2-0.1,2.3,0,3.5c0.2,1.9-0.5,2.6-2.5,2.6
		c-4.8-0.1-9.6,0-14.4,0c-7,0-13.9,0-20.9,0c-4.9,0-4.4,0.5-4.4-4.6c0-0.5,0-1,0-1.5c0-57.8,0-115.5,0-173.3c0-0.8,0-1.7,0-2.5
		c0.1-3.7,0.1-3.7,3.9-3.7c18.4,0,36.8,0,55.1-0.1c2.6,0,3.7,0.7,4.1,3.5c2.1,15.6,4.5,31.1,6.7,46.6c1.4,9.8,2.8,19.6,4.2,29.5
		c0.2,1.4,0.7,2.8,1.3,4.7c2.4-18.7,4.7-36.7,7-54.7c1.1-8.5,2.3-17,3.2-25.6c0.5-4.6,1.2-3.9,4.6-3.9c18.2,0,36.4,0,54.6,0
		c4.2,0,4.2,0,4.3,4.4c0,34.8,0,69.5,0,104.3c0,23.8,0,47.7,0,71.5c0,6.1,0.8,5.4-5.7,5.4c-10.4,0-20.9,0-31.3,0
		c-6.2,0-5.4,0.6-5.4-5.2c-0.1-24.8-0.1-49.6-0.1-74.5c0-10.8,0-21.5,0-32.3c0-2.1,0-4.2,0-6.3
		C1419,574.3,1418.7,574.3,1418.5,574.3z"/>
	<path class="st0" d="M691.2,509.7c2.2,6.6,2.5,13.6,3.6,20.4c2.9,19.5,5.5,38.9,8.3,58.4c0.1,0.9,0.5,1.8,0.8,3.1
		c1.3-3.6,1.3-7.1,1.7-10.5c2.9-22,5.6-43.9,8.4-65.9c0-0.3,0.1-0.7,0.1-1c1.3-5.5-0.6-5.1,6.1-5.1c17.4,0,34.8,0,52.1,0
		c4.4,0,4.4,0,4.4,4.2c0,58.2,0,116.5,0,174.7c0,4-0.1,4.1-4.1,4.1c-11.1,0-22.2,0-33.3,0c-4.2,0-4.3,0-4.3-4.4
		c-0.1-34.2-0.1-68.5-0.2-102.7c0-2.4,0-4.8-0.9-7.2c-1.1,8.1-2.2,16.3-3.3,24.4c-2.8,21.1-5.7,42.3-8.5,63.4
		c-1.1,7.9-2.2,15.7-3.1,23.6c-0.3,2.3-1.1,3-3.4,3c-7.9-0.1-15.9-0.1-23.8,0c-2,0-2.9-0.6-3.2-2.7c-1.4-10.6-3.1-21.3-4.6-31.9
		c-3.2-21.7-6.3-43.5-9.4-65.3c-0.5-3.8-1-7.5-1.5-11.3c0-2.1,0.7-4.4-1.7-6.5c-0.4,2.5-0.8,4.5,0.3,6.5c0.1,2.1,0.1,4.3,0.1,6.4
		c0,32.8,0,65.7,0,98.5c0,1.8,0.4,3.6-0.4,5.4c-13.7,0-27.3,0.1-41,0.1c-0.7-1.6-0.4-3.3-0.4-4.9c0-57.4,0-114.8,0-172.2
		c0-1.6-0.6-3.3,0.6-4.8C650.8,510,671,509.8,691.2,509.7z"/>
	<path class="st0" d="M1614,582.1c0,22.7,0,45.4,0,68c0,1.2,0,2.3,0,3.5c-0.1,1.5,0.6,2.1,2.1,2c0.2,0,0.3,0,0.5,0
		c2.3,0.2,5.2-1,6.7,0.5c1.8,1.9,0.6,5,0.6,7.6c0.1,19,0,38.1,0,57.1c0,1-0.1,2,0,3c0.2,2.3-0.6,3.3-3,3.2c-5.8-0.2-11.6,0-17.4,0
		c-3.1,0-6.3,0-9.4,0c-3.8,0-3.9-0.1-3.9-3.8c0-7.8,0-15.6,0-23.3c0-1,0-2,0-3c0.1-1.5-0.7-2.1-2.1-2c-1,0-2,0-3,0
		c-22.5,0-45,0-67.6,0c-0.7,0-1.3,0.1-2,0c-2.6-0.4-3.5,0.8-3.4,3.4c0.1,7.8,0,15.6,0.1,23.3c0,6.3,0.2,5.4-5.3,5.4
		c-8.3,0-16.6-0.1-24.8,0.1c-2.6,0-3.4-0.7-3.4-3.3c0.1-21.7,0.1-43.4,0-65c0-2.5,0.9-3,3.1-3c7-0.1,7-0.2,9-7
		c5.3-18.1,8.4-36.7,10.9-55.4c3.5-27,4.7-54,4.8-81.2c0-3.6,0.1-3.7,3.8-3.7c33.1,0,66.2,0,99.4,0c4.3,0,4.3,0,4.3,4.3
		C1614,535.8,1614,559,1614,582.1z M1539.8,655.7c7.7,0,15.3,0,22.9,0c2,0,2.7-0.8,2.5-2.6c-0.1-1.2,0-2.3,0-3.5
		c0-32.6,0-65.2,0-97.8c0-6.4,0-6.4-6.6-6.4c-7.5,0-7.4,0-7.5,7.6c-0.5,24.8-2.3,49.5-6.4,74.1
		C1543.1,636.5,1541.5,645.9,1539.8,655.7z"/>
	<path class="st1" d="M1099.2,614.4c0,2.6,0,5.2,0,7.9c0,21.8,0,43.7-0.1,65.5c0,5,0.6,4.7-4.9,4.7c-13.2,0-26.5,0-39.7,0
		c-4,0-4,0-4-4c0-25.8,0-51.6,0-77.5c0-32.4,0-64.9,0-97.3c0-0.8,0-1.7,0-2.5c0-5-0.2-4.4,4.7-4.4c2,0,4,0,6,0c10.9,0,21.9,0,32.8,0
		c5.9,0,5.2-0.6,5.2,5.4c0,21.7,0.1,43.4,0.1,65c0,1.7,0,3.3,0.1,5c0.2,3.1,0.5,3.3,3.6,2.6c6.5-1.5,10-6.1,10.3-13.9
		c0.4-11.7,0.7-23.5,0.9-35.2c0.1-6.1,0.5-12.2,2.1-18.2c0.8-2.9,1.9-5.6,3.6-8.1c1.2-1.8,2.6-2.6,4.9-2.6
		c13.6,0.1,27.1,0.1,41.2,0.1c-1.1,2.5-2.2,4.6-3,6.8c-2.2,6-2.6,12.3-2.6,18.6c-0.1,11.1,0.2,22.2,0.3,33.3c0,3.7-0.2,7.3-1.1,10.8
		c-2.2,9.6-8.2,16-17.2,19.8c-3.7,1.5-7.5,2.4-12.1,3.4c2.2,0.6,3.6,1,5.1,1.4c17.5,4.5,25.7,15.5,25.2,33.5
		c-0.3,10.7-0.5,21.5-0.3,32.3c0.2,8.7,1.3,17.4,5.7,25.1c-1.2,1-2.2,0.7-3.1,0.7c-12.6,0-25.2-0.1-37.7,0.1c-2.9,0-4.6-1-6-3.3
		c-3.8-6.3-4.8-13.3-4.9-20.5c-0.1-12.1,0-24.2,0-36.2c0-1.8,0.1-3.7-0.2-5.5C1113.1,619.3,1107.5,614.4,1099.2,614.4z"/>
	<path class="st1" d="M1183.7,598.9c0.2-16-0.2-32.9,0.9-49.7c1.5-22.3,13.8-37.9,35.4-43.6c15.6-4.1,31.2-3.8,46.2,2.4
		c16.5,6.7,25.9,19.3,28,37.2c0.5,4.1,0.7,8.2,0.8,12.4c0.7,28.6,0.7,57.2,0,85.8c-0.1,5.3-0.3,10.6-1.5,15.8
		c-3.5,16.3-13.3,27.6-28.9,33.2c-17.4,6.3-35.2,6.2-52.3-0.9c-16.9-7-26-20.4-27.6-38.6C1183.2,635.1,1183.9,617.4,1183.7,598.9z
		 M1232.3,600C1232.3,600,1232.3,600,1232.3,600c0.1,17.2,0.1,34.4,0.1,51.6c0,2.8,0,5.6,0.8,8.4c1,3.6,2.8,4.9,6.4,4.9
		c3.9,0,6.1-2,6.6-6.5c0.5-4.6,0.9-9.2,0.9-13.9c0.1-30.9,0.1-61.9,0-92.8c0-3.5-0.4-6.9-0.8-10.4c-0.5-4.5-2.4-6.4-5.9-6.7
		c-3.9-0.3-6.4,1.8-7.4,6.4c-0.7,2.8-0.7,5.6-0.7,8.4C1232.2,566.2,1232.3,583.1,1232.3,600z"/>
	<path class="st0" d="M903.5,600.6c0,14.6,0.1,29.1-0.1,43.7c-0.1,4.8-0.3,9.6-1.3,14.3c-3.8,18.1-15.1,29.5-32.5,34.5
		c-14.5,4.2-29.2,4.1-43.5-0.7c-18.3-6.2-28.9-19-31.1-38.5c-1.4-11.9-1-23.8-1.2-35.7c-0.3-20.8-0.1-41.7,0.5-62.5
		c0.1-4.6,0.4-9.3,1.4-13.8c3.7-16.4,13.6-27.4,29.3-32.8c16.3-5.6,33-5.6,49.1,0.7c17.1,6.6,26.7,19.4,28.5,37.7
		C904.5,565.2,903.7,582.9,903.5,600.6z M855.9,600.6c0.1,0,0.1,0,0.2,0c0-15.5,0-31.1,0-46.6c0-4.1,0.2-8.3-0.8-12.3
		c-0.9-3.8-2.7-5.2-6.2-5.2c-3.4,0-5.4,1.5-6.4,5c-0.4,1.3-0.6,2.6-0.7,3.9c-0.2,3.3-0.5,6.6-0.5,9.9c0,29.4-0.1,58.8,0,88.2
		c0,5.4-0.2,10.9,1,16.3c0.8,3.5,2.4,4.8,5.9,4.9c3.6,0.1,5.5-1.2,6.5-4.7c0.8-2.7,1-5.5,1-8.3C855.9,634.7,855.9,617.6,855.9,600.6
		z"/>
	<path class="st0" d="M968.7,604c0.2,14.1-0.4,31.5,0.3,48.8c0.1,2.1,0.2,4.3,0.8,6.4c1.2,4.1,3.2,5.6,7.6,5.5
		c4-0.1,6.3-1.6,7.1-5.5c1-4.7,1.2-9.5,1.3-14.3c0-7.4,0-14.9,0-22.3c0-4-0.2-3.9,3.7-3.9c13.4,0,26.8,0,40.2,0
		c3.8,0,3.8,0.1,3.8,3.8c0,12.7-0.3,25.5-2.6,38.1c-1.6,8.7-5.9,15.7-12.5,21.4c-9.4,8.2-20.4,12.6-32.9,13.6
		c-9.5,0.7-18.8,0.4-28.1-1.8c-21.8-5.4-32.6-17.7-35.1-40c-0.9-8.2-1.4-16.5-1.4-24.8c0-23.5-0.4-47,0.3-70.5
		c0.1-2.5,0.2-5,0.3-7.4c1-23.9,16.1-37.5,33.3-42.6c16.2-4.7,32.3-4.3,48.3,1.2c5.5,1.9,10.4,4.9,14.9,8.6
		c6.6,5.5,10.8,12.4,12.6,20.8c2,9.3,2.5,18.7,2.8,28.1c0.2,6,0.1,11.9,0,17.9c0,3.9-0.1,3.9-3.7,3.9c-13.6,0-27.2-0.1-40.7,0.1
		c-2.7,0-3.4-0.8-3.4-3.4c0.1-10.1,0-20.2,0.1-30.3c0-4.2-0.3-8.3-0.9-12.4c-0.6-4.5-2.5-6.3-6.7-6.5c-4.9-0.3-7.3,1.3-8.5,5.7
		c-1.3,5-1.1,10.2-1.1,15.3C968.6,571.9,968.7,586.3,968.7,604z"/>
	<path class="st0" d="M1831.6,589.4c13.1,4.7,18.3,14.2,19.3,26.8c1.2,16,1.9,32-1.2,47.9c-3.3,16.8-13.4,27.3-29.8,31.6
		c-15.8,4.2-31.8,3.8-47.6-0.4c-5.5-1.5-10.4-4.2-14.9-7.7c-7.5-5.7-11.9-13.1-13.4-22.4c-1.3-8.5-1.9-17.1-2-25.7
		c0-4.8,0-9.6,0-14.4c0-4.8-0.5-4.4,4.6-4.4c8.3,0,16.6,0,24.8,0c4.6,0,9.3,0.1,13.9,0c2.6-0.1,3.4,0.7,3.4,3.4
		c-0.1,10.6,0,21.2,0,31.8c0,2.8,0.1,5.6,0.8,8.4c0.9,3.7,2.4,5.1,6.1,5.3c3.8,0.3,6.6-1.1,7.7-4.1c0.6-1.5,1-3.2,1.1-4.8
		c0.9-12.4,1.3-24.8,0.2-37.2c-0.1-1.6-0.5-3.3-0.9-4.9c-1.5-6.4-5.8-9.8-12.2-10.5c-3.9-0.4-7.9-0.7-11.9-0.9
		c-1.7-0.1-2.3-0.6-2.3-2.3c0.1-7.4,0.1-14.9,0-22.3c0-1.9,0.7-2.5,2.6-2.6c4.8-0.1,9.6-0.4,14.4-0.8c5.6-0.5,8.3-2.8,9.8-8.2
		c0.2-0.6,0.3-1.3,0.4-1.9c1-9.2,1.2-18.5,0.1-27.7c-0.7-5.4-3.8-8.1-8.4-7.7c-3.5,0.3-5.5,1.9-6.4,5.2c-0.7,2.6-1,5.2-1,7.8
		c0,5.5-0.1,10.9,0,16.4c0,2.2-0.4,3.2-3,3.2c-13.6-0.1-27.1-0.1-40.7-0.1c-1.5,0-3.1,0.3-3-2.1c0.2-10.1-0.5-20.2,1.4-30.2
		c2.7-14.4,11-23.2,25.3-26.6c17.6-4.1,35.1-3.8,52.6,0.6c13.5,3.4,21.9,12.4,26,25.5c3.5,11.3,3.7,22.8,1.8,34.4
		c-1.1,6.5-4.3,11.7-9.5,15.8C1837.3,585.5,1834.8,587.1,1831.6,589.4z"/>
	<path class="st0" d="M1725.2,694.2c-1.6,1.1-3.2,0.7-4.6,0.7c-25,0-50,0-75,0c-1,0-2,0-3,0c-1.2,0-1.8-0.7-1.7-1.9
		c0-1.2,0-2.3,0-3.5c0-58.6,0-117.2,0-175.7c0-0.3,0-0.7,0-1c0-4.2,0-4.3,4.3-4.3c24.2,0,48.3,0,72.5,0c4.3,0,4.3,0,4.3,4.3
		c0,9.9-0.1,19.9,0.1,29.8c0,2.6-0.8,3.4-3.4,3.4c-8.4-0.1-16.9-0.1-25.3,0c-3.8,0-3.8,0.1-3.8,3.8c0,9.3,0,18.5,0,27.8
		c0,3.5,0.1,3.5,3.6,3.5c7.8,0,15.6,0.1,23.3,0c2.5,0,3.5,0.6,3.5,3.3c-0.1,9.6,0,19.2-0.1,28.8c0,3.4-0.1,3.5-3.7,3.5
		c-7.6,0-15.2,0-22.8,0c-3.7,0-3.8,0.1-3.8,3.8c0,11.1,0,22.2,0,33.3c0,3.7,0.1,3.7,3.9,3.7c9.3,0,18.5,0,27.8,0
		c3.9,0,3.9,0.1,3.9,3.7C1725.2,672.2,1725.2,683.3,1725.2,694.2z"/>
	<path class="st1" d="M165.7,579.3c1.7-0.5,1.6-1.8,1.7-3.2c1.1-18.3,6.3-35.6,13.4-52.4c1.7-3.9,2.9-8.1,5.9-11.9
		c3.8,3.4,7.2,6.9,11,10c4.3,3.6,8,7.9,12.4,11.4c4.2,3.3,4.2,4.7,2.4,9.8c-4.2,11.7-7.1,23.6-8.5,36c-0.8,7.1-0.8,14.2-0.7,21.2
		c0.1,4.4,1.3,8.8,0.9,13.3c-0.1,1,0.2,2.1-0.1,3c-1.1,3.4-1.8,6.4,2.3,8.5c0.9,0.5,1.2,2.3,1.5,3.6c2.5,10,6,19.6,11,28.6
		c2.3,4.2,2.6,8.3,1.4,12.9c-1.4,5.2-2.3,10.6-2.2,16.1c0.1,3.3-1.1,6.5-1,9.8c0.2,5.8,0.8,11.5,1.8,17.2c0.2,1.3,0.6,2.6-0.5,3.8
		c-1.6,0.2-2.3-1.1-3.1-2c-14.2-15.6-26.3-32.6-34.5-52.2c-5.8-13.6-9.6-27.7-12.1-42.2c-1.9-11.4-2.6-22.9-2.2-34.5
		c0.1-1.9,0.6-4-0.8-5.8C165.6,579.9,165.6,579.6,165.7,579.3z"/>
	<path class="st0" d="M925.2,769.3c7.2-0.9,7.3-0.9,8.7-8.1c1.9-9.6,2.4-19.3,2.5-29.1c0.1-6.8-0.9-5.7,5.8-5.8
		c7.8-0.1,15.6,0.1,23.3-0.1c2.6,0,3.4,0.8,3.4,3.4c-0.1,11.6-0.1,23.2,0,34.7c0,4.2,0,4.3,4,4.5c1.6,0.1,2.4,0.4,2.4,2.2
		c-0.1,3.6-0.1,7.3,0,10.9c0,1.7-0.6,2.4-2.3,2.3c-1.5-0.1-2.6-0.3-2.6-2.2c0-0.7,0-1.3,0-2c-0.2-6.6-0.2-6.6-7.1-6.6
		c-9.8,0-19.5,0-29.3,0c-3.5,0-3.5,0.1-3.7,3.5c-0.1,1.5-0.2,3-0.1,4.5c0.1,2.2-0.9,2.9-3,2.8c-2-0.1-1.9-1.4-1.9-2.7
		C925.2,777.5,925.2,773.4,925.2,769.3z M938.2,768.9c7.7,0,14.8-0.1,21.9,0c2,0,2.9-0.5,2.9-2.8c-0.1-10.9-0.1-21.8,0-32.7
		c0-2-0.7-2.6-2.6-2.6c-4.8,0.1-9.6,0-14.4,0c-3.8,0-3.8,0-3.9,3.6C941.9,745.9,941.5,757.3,938.2,768.9z"/>
	<path class="st0" d="M1421.6,726.7c0,12.1,0,24.2,0,36.5c2-0.4,2.5-1.9,3.3-3c7.3-10,14.5-20.1,21.7-30.2c0.7-0.9,1.3-1.9,2.1-2.8
		c1.5-1.6,3.4-1,5.1-0.7c1.9,0.3,1.1,2.1,1.1,3.3c0.1,13.6,0.1,27.1,0,40.7c0,3.1-0.5,3.3-3.4,3.3c-2.6,0-2.4-1.7-2.4-3.4
		c0-9.7,0.1-19.5,0.1-29.2c0-1.5,0-2.9,0-4.5c-1.8,0.1-2.1,1.5-2.8,2.5c-7.2,10.1-14.4,20.1-21.6,30.2c-0.8,1.1-1.5,2.2-2.4,3.2
		c-1.5,1.9-3.7,1.3-5.5,0.9c-1.7-0.4-1-2.2-1-3.4c0-13.1,0.1-26.1,0.1-39.2C1416,726,1416,726,1421.6,726.7z"/>
	<path class="st0" d="M1077.2,763.6c8.1-11.3,16.2-22.5,24.1-33.8c2.1-3,4.3-4.4,8-3.1c0.1,0.6,0.2,1.2,0.2,1.8
		c0,13.9,0,27.8,0,41.7c0,1.5,0.6,3.4-2.2,3.5c-2.9,0.1-3.3-0.1-3.3-3.3c0-9.8,0-19.5,0-29.3c0-1.5,0-2.9,0-4.6
		c-1.8-0.1-2.1,1.5-2.8,2.4c-7.3,10.1-14.4,20.1-21.7,30.2c-0.8,1.1-1.5,2.2-2.3,3.2c-1.5,2-3.6,1.4-5.5,1.1
		c-2.2-0.4-1.3-2.4-1.3-3.7c0-13.4,0-26.8,0.1-40.2c0-3,1.9-4.2,4.8-3.2c1.5,0.5,1.1,1.9,1.1,2.9c0,9.4,0,18.9,0,28.3
		c0,1.9,0,3.9,0,5.8C1076.7,763.4,1076.9,763.5,1077.2,763.6z"/>
	<path class="st0" d="M868.5,763.6c3.4-4.8,6.9-9.5,10.3-14.3c4.9-6.8,9.8-13.7,14.7-20.5c0.8-1.2,1.5-2.4,3.3-2.6
		c3.5-0.2,4,0,4,3.6c0,13.4,0,26.8,0,40.2c0,1.5,0.8,3.5-2,3.7c-2.9,0.2-3.5-0.1-3.5-3.1c0-9.8,0-19.5,0-29.3c0-1.6,0-3.2,0-5.4
		c-1.9,1.3-2.7,2.8-3.6,4c-7.1,9.9-14.2,19.9-21.3,29.8c-0.7,0.9-1.3,1.9-2,2.8c-1.6,1.7-3.7,1.2-5.6,0.8c-1.7-0.4-1-2.2-1-3.4
		c0-13.6,0.1-27.1,0-40.7c0-2.5,0.9-3,3.2-3c2.2,0,2.8,0.8,2.8,2.9c-0.1,10.3-0.1,20.5-0.1,30.8c0,1.2,0,2.3,0,3.5
		C868,763.4,868.2,763.5,868.5,763.6z"/>
	<path class="st0" d="M1370.4,763.6c8.1-11.3,16.3-22.5,24.2-33.9c2.1-3.1,4.4-4.1,8.1-2.9c0,7,0,14.1,0,21.2c0,7.6-0.1,15.2,0,22.8
		c0,2.1-0.7,2.9-2.9,2.9c-2.3,0-2.7-1-2.7-3c0.1-9.8,0-19.5,0.1-29.3c0-1.6,0-3.2,0-5.3c-1.7,0.6-2.2,1.9-2.9,2.8
		c-7.3,10.2-14.6,20.4-21.9,30.6c-0.8,1.1-1.5,2.2-2.4,3.1c-1.5,1.4-3.5,1-5.2,0.7c-1.8-0.4-1.1-2.1-1.1-3.3c0-13.6,0-27.1,0-40.7
		c0-1.7-0.1-3.2,2.5-3.2c3.1,0.1,3.4,0,3.4,3.2c0,9.8,0,19.5-0.1,29.3c0,1.6,0,3.2,0,4.7C1369.8,763.5,1370.1,763.5,1370.4,763.6z"
		/>
	<path class="st0" d="M1310.7,750.1c0-6.9,0.1-13.9-0.1-20.8c-0.1-2.4,0.7-3.1,3.1-3.1c2.5,0,3,0.9,3,3.2c-0.1,11.7,0,23.5,0,35.2
		c0,4.8,0,4.2,4.4,4.2c5.8,0,11.6,0,17.4,0c4.5,0,4.4,0.5,4.4-4.2c0-10.7,0-21.5,0-32.2c0-0.8,0-1.7,0-2.5c-0.1-2.1-0.2-3.9,3-3.7
		c3,0.2,3,0,3,3.5c0,10.9,0,21.8,0,32.7c0,1,0.1,2,0,3c-0.3,2.5,0.6,3.8,3.3,3.4c2.5-0.4,3.6,0.5,3.4,3.2c-0.2,3.5-0.2,6.9,0,10.4
		c0.1,2.1-0.9,2.4-2.6,2.5c-2.1,0.1-2.6-0.9-2.4-2.7c0-0.2,0-0.3,0-0.5c-0.3-2.6,0.9-5.8-0.9-7.6c-1.7-1.5-4.8-0.5-7.2-0.5
		c-9.4-0.1-18.9-0.1-28.3,0c-2.7,0-3.4-0.8-3.4-3.4C1310.8,763.6,1310.7,756.9,1310.7,750.1z"/>
	<path class="st0" d="M1302.8,726.7c-4.7,6.2-9.2,12.1-13.6,17.9c-3.8,5-3.8,5,0,10.1c3.8,5,7.7,10,11.5,15c0.8,1,1.5,2.1,2.4,3.4
		c-4.2,1-7.1,0.4-9.5-3.3c-3.2-4.8-6.9-9.3-10.5-13.9c-2.3-3-6.1-4.2-9.5-3.2c-1.6,0.5-1.2,1.8-1.2,2.8c0,5,0,9.9,0,14.9
		c0,3-0.6,3.3-3.5,3.1c-1.4-0.1-2.2-0.6-2.1-2.1c0-1,0-2,0-3c0-12.4,0-24.8,0-37.2c0-5.3,0-5.3,5.7-4.7c0,5.7,0.1,11.5,0,17.3
		c0,2.4,0.4,3.5,3.2,3.6c3.5,0.1,5.8-0.8,7.8-3.8c3.1-4.7,7-8.9,10.1-13.5C1295.6,727,1298.1,725.3,1302.8,726.7z"/>
	<path class="st0" d="M1161.1,750c0,6.8,0,13.6,0,20.3c0,2.9-2.1,4.1-4.9,3.1c-1.5-0.6-1.1-1.9-1.1-2.9c0-4.6,0-9.3,0-13.9
		c0-4.3,0.2-3.9-4.1-3.9c-6,0-11.9,0-17.9,0c-4.6,0-4.1-0.3-4.1,4.4c0,4.5-0.1,8.9,0,13.4c0.1,2.4-0.8,3.1-3.1,3.2
		c-2.6,0.1-3-1.1-3-3.3c0.1-13.7,0.1-27.4,0-41.2c0-2.4,0.7-3.1,3.1-3.1c2.5,0,3.1,0.9,3,3.2c-0.1,5.1,0,10.2-0.1,15.4
		c0,1.9,0.3,3.1,2.6,3c6.9-0.1,13.9-0.1,20.8,0c2.3,0,2.7-1,2.7-3c-0.1-5.1,0.1-10.3-0.1-15.4c-0.1-2.3,0.5-3.2,3-3.2
		c2.3,0,3.2,0.6,3.1,3C1161,736.2,1161.1,743.1,1161.1,750z"/>
	<path class="st0" d="M767.6,750c0,6.8,0,13.6,0,20.3c0,2.9-2,4.2-4.8,3.1c-1-0.4-1.2-1.1-1.2-1.9c0-2.2,0-4.3,0-6.5
		c0-10.3-0.1-20.5,0-30.8c0-2.5-0.6-3.5-3.3-3.4c-4.5,0.2-8.9,0-13.4,0.1c-3.6,0-3.7,0.1-3.6,3.9c0.1,6.5-0.3,12.9-0.7,19.3
		c-0.2,4.1-0.9,8.2-2.3,12.1c-2.2,6-6.6,8.4-12.9,7.6c-1.9-0.3-2-1.3-1.9-2.7c0-1.2,0.1-2,1.8-2.2c5.4-0.5,7-2,8.2-7.4
		c1.6-7,1.7-14.1,1.8-21.2c0.1-4,0.1-7.9,0-11.9c0-1.6,0.5-2.4,2.2-2.4c9.3,0.1,18.5,0.1,27.8,0c2.3,0,2.2,1.4,2.2,2.9
		C767.6,736.1,767.6,743,767.6,750z"/>
	<path class="st0" d="M1023.6,732.3c8.7-6.4,17.9-8.3,27.8-5.1c6.7,2.2,9.6,8.5,7.2,14.6c-0.8,2.1-2.2,3.7-4,4.9
		c-1,0.7-2.1,1.3-3.1,1.9c0.4,1.4,1.6,1.3,2.5,1.7c4.4,2.3,6.5,6,6.4,10.9c-0.1,4.9-2.5,8.7-7,10.5c-8.7,3.6-17.4,3.1-25.8-1.4
		c-1.4-0.8-2.9-1.7-3.9-3c0.1-1.9,1.6-2.8,2.6-4.3c5.3,4.4,11.2,6.7,18,5.9c2.2-0.2,4.2-0.8,6.1-2c2.8-1.7,4.1-4.3,3.9-7.5
		c-0.2-3-1.8-5.2-4.6-6.6c-2.9-1.4-6.1-1.6-9.2-1.7c-2-0.1-4-0.1-6,0c-1.4,0.1-2.1-0.5-2.1-2c0-1.7,0.5-2.4,2.3-2.3
		c2.5,0.1,5,0,7.4,0c2.4,0,4.6-0.5,6.7-1.5c3.1-1.5,4.8-4.5,4.5-7.6c-0.3-3.3-2.4-5.7-5.8-6.6c-4.6-1.2-9.2-0.7-13.6,1
		c-1.4,0.5-2.7,1.3-4,2C1026.6,736.2,1026.6,736.2,1023.6,732.3z"/>
	<path class="st0" d="M1224.3,749.6c0-6.9,0-13.9,0-20.8c0-1.8,0.4-2.7,2.5-2.6c9.4,0.1,18.8,0.1,28.3,0c1.6,0,2.5,0.3,2.4,2.2
		c-0.1,1.7-0.2,2.8-2.4,2.8c-7.1-0.1-14.2-0.1-21.3,0c-3.5,0-3.5,0.1-3.5,3.5c0,3.6,0.1,7.3,0,10.9c0,1.9,0.6,2.6,2.6,2.5
		c6.1-0.1,12.2,0,18.4-0.1c1.5,0,2.6,0.1,2.5,2c0,1.8-0.4,2.8-2.5,2.7c-5.8-0.1-11.6-0.1-17.4,0c-3.6,0-3.6,0.1-3.6,3.4
		c0,3.3,0.1,6.6,0,9.9c-0.1,2.2,0.8,2.8,2.9,2.8c7.4-0.1,14.9-0.1,22.3,0c2.7,0,3.2,0.7,2.9,3.1c-0.2,1.2-0.7,1.7-1.9,1.8
		c-0.3,0-0.7,0-1,0c-9.4,0-18.9,0-28.3,0c-2.1,0-2.9-0.7-2.9-2.8C1224.3,763.8,1224.3,756.7,1224.3,749.6z"/>
	<path class="st0" d="M983.8,749.9c0-6.9,0.1-13.9,0-20.8c0-2,0.5-2.9,2.7-2.9c9.3,0.1,18.5,0.1,27.8,0c1.8,0,2.7,0.3,2.7,2.4
		c-0.1,1.9-0.7,2.6-2.6,2.6c-7.1-0.1-14.2,0.1-21.3-0.1c-2.6-0.1-3.5,0.7-3.3,3.3c0.2,3.6,0.1,7.3,0,10.9c-0.1,2.2,0.8,2.8,2.9,2.8
		c6-0.1,11.9,0,17.9-0.1c1.7,0,2.9,0.1,2.8,2.3c-0.1,2-0.9,2.5-2.7,2.5c-6-0.1-11.9,0-17.9-0.1c-2,0-3,0.4-2.9,2.7
		c0.2,3.5,0.2,6.9,0,10.4c-0.1,2.5,0.9,3.1,3.2,3c7.4-0.1,14.9-0.1,22.3,0c2.4,0,3.1,1.1,2.6,3.4c-0.4,1.9-1.9,1.5-3.1,1.5
		c-7.8,0-15.5,0-23.3,0c-7.5,0-7.5,0-7.5-7.5C983.8,760.8,983.8,755.3,983.8,749.9z"/>
	<path class="st0" d="M718.9,766c-9.2,11-29.2,9.9-37.7,1c-7.2-7.5-8.1-16.5-5.2-25.8c2.9-9.1,9.8-13.8,19.1-15
		c8.6-1.1,16.8-0.1,23.2,6.6c0.1,1.2-0.8,1.5-1.2,2.2c-1.6,2-3,1.7-4.9,0.1c-5.4-4.5-11.8-4.9-18.3-3.2
		c-9.2,2.4-13.9,10.2-12.9,20.6c0.8,8.9,7.4,15.4,16.4,16.4c5.3,0.6,10.2-0.7,14.5-3.8C715.5,762.4,715.5,762.4,718.9,766z"/>
	<path class="st0" d="M1215.1,733.2c-0.1,0.9-0.9,1.3-1.5,1.9c-1.5,1.8-2.8,1.6-4.5,0.1c-5.4-4.6-11.8-5-18.2-3.4
		c-9.2,2.3-14,10.1-13.2,20.5c0.7,9.1,7.4,15.8,16.7,16.7c5.3,0.5,10.2-0.8,14.4-4c1-0.8,2.1-1.6,3.1-2.4c4.6,3.8,4.6,3.8,0.2,6.9
		c-10.4,7.3-26.3,6-34.6-2.9c-6.9-7.4-7.6-16.4-4.6-25.5c2.9-8.9,9.7-13.5,18.8-14.8c8.1-1.1,15.9-0.3,22.3,5.4
		C1214.5,732.1,1215.1,732.4,1215.1,733.2z"/>
	<path class="st0" d="M643.1,773.3c1.6-3.4,2.8-6.4,4.4-9.3c1.2-2.2,1-3.9-0.2-6c-5.3-9.5-10.5-19.1-15.7-28.7
		c-0.5-0.8-1.2-1.6-1-2.7c5.8-0.6,5.8-0.6,8.3,4.2c3.5,6.6,6.9,13.1,10.5,19.7c0.7,1.2,1,2.7,2.7,3.8c2.4-5.3,4.7-10.6,7.1-15.8
		c1.1-2.6,2.3-5.1,3.5-7.7c2-4.6,2-4.6,7.3-4.2c0.6,1.6-0.5,2.8-1.1,4c-5.8,12.9-11.7,25.9-17.6,38.8
		C649.2,773.7,649.2,773.7,643.1,773.3z"/>
	<path class="st0" d="M789.1,773.2c1.5-3.3,2.7-6.2,4.2-8.9c1.3-2.3,1.1-4.2-0.2-6.4c-5.2-9.4-10.3-18.8-15.5-28.3
		c-0.5-0.9-0.9-1.7-1.4-2.6c5.9-1.2,5.9-1.2,8.4,3.6c4.2,7.9,8.4,15.7,12.7,23.7c1.7-1.3,2-3.2,2.7-4.7c2.9-6.3,5.7-12.6,8.5-19
		c2-4.5,2-4.5,7.3-4c0.3,1.8-0.8,3.1-1.5,4.6c-5.7,12.6-11.5,25.2-17.2,37.9C795.2,773.8,795.2,773.8,789.1,773.2z"/>
	<path class="st0" d="M824.2,749.4c0-6.8,0.1-13.6,0-20.3c0-2.1,0.6-2.9,2.8-2.9c8.4,0.1,16.9,0.1,25.3,0c1.8,0,2.7,0.3,2.7,2.4
		c0,2-0.8,2.6-2.7,2.5c-6.1-0.1-12.2-0.1-18.4,0c-3.7,0-3.7,0.1-3.7,3.9c0,11.7,0,23.5,0,35.2c0,3.4-0.2,3.4-3.2,3.4
		c-2.2,0-2.8-0.8-2.8-2.9C824.3,763.6,824.2,756.5,824.2,749.4z"/>
	<path class="st1" d="M691.2,509.7c-20.2,0.2-40.4,0.3-60.6-0.1c0.8-0.9,1.8-0.5,2.8-0.5c18.2,0,36.4,0,54.6,0
		C689.1,509,690.3,508.6,691.2,509.7z"/>
	<path class="st1" d="M630.4,691.5c13.7,0,27.3-0.1,41-0.1c-0.3,1-1.2,0.9-2,0.9c-12.3,0-24.6,0-36.9,0
		C631.7,692.3,630.8,692.5,630.4,691.5z"/>
	<path class="st1" d="M671.6,581.1c-1.1-2-0.7-4-0.3-6.5c2.4,2,1.7,4.3,1.7,6.5C672.6,580.6,672.1,580.6,671.6,581.1z"/>
	<path class="st1" d="M517.9,576.2l-0.4,0.1c0,0-0.4,0-0.4,0c0,0,0,0,0,0c0.3-0.3,0.5-0.6,0.8-0.9
		C518.1,575.6,518.1,575.9,517.9,576.2z"/>
	<path class="st1" d="M473.5,629.9c2.3-0.4,2.4-2.3,2.9-4.1c1-3.7,1-3.7,4.9-3.1c1,0.1,2.1,0.4,2.7-0.6c0.6-1,0.1-2-0.7-2.7
		c-5-4.2-4-9.5-3.3-15c0.9-7.4,0.9-14.9,0.2-22.2c-0.9-9-2.1-17.9-4.7-26.6c-0.9-2.8-1.8-5.7-2.6-8.5c-0.9-3.1-0.5-6.1,1.9-8.2
		c8.2-7.3,15.9-15.3,23.9-23.1c2.2,2.1,3.1,4.7,4.1,7c5.9,14.2,10.4,28.7,12.7,44c0.5,3.1-0.3,6.6,1.7,9.5c0,0,0,0,0,0
		c0,5-0.1,9.9,0,14.9c0.6,16.6-2,32.9-6.2,48.9c-5.7,21.9-15.9,41.6-29.5,59.6c-3.7,4.9-8.1,9.4-12.7,14.7c-0.6-3-0.6-5.3-0.2-7.5
		c1.2-6.6,0.7-13.1,0.1-19.7c-0.7-8.1-2.2-16-4.1-23.8c-0.7-3.1-0.1-6.2,1.5-9.1c3.3-5.9,5.3-12.4,7.6-18.8c0.4-1.3,1.1-2.5-0.2-3.6
		C473.5,631.2,473.5,630.6,473.5,629.9z"/>
	<path class="st1" d="M400.3,510.3c-0.2-2.2,1.4-2.9,2.3-3.9c31.8-33.4,64.9-65.5,97.4-98.3c5.1-5.2,5.2-5.2,10.3-0.1
		c6,6,11.9,11.9,17.9,17.9c3.2,3.2,2.8,2.7,0.1,5.7c-15.9,17.7-33.4,33.9-50.1,50.9c-9.9,10.2-20.2,20.1-30.1,30.2
		c-3.5,3.6-7.2,4.8-12,2.9c-5.7-2.2-11.9-2.3-18-3C412.1,512.1,406.1,511.5,400.3,510.3z"/>
	<path class="st1" d="M283.8,509.8c-4.6,2-8.7,2.4-12.7,2.8c-9.2,1-18.4,1.4-27,5.4c-1.3,0.6-2.2,0.2-3.1-0.7
		c-0.7-0.7-1.4-1.4-2.1-2.1c-27.1-27.1-54.3-54.3-81.4-81.4c-5.4-5.4-5.3-4.5,0.1-10.4c5.2-5.6,10.3-11.1,16.1-16.1
		c4.2-3.6,4-3.8,7.9-0.2c29.4,27.4,57.1,56.5,85.6,84.8C272.8,497.6,278,503.6,283.8,509.8z"/>
	<path class="st1" d="M458.5,695.4c0.1,3.9,0.2,9,0.7,14.1c1,9.4-2.2,17.2-10.3,23.1c-16.4,12-34.1,21.3-53.3,27.9
		c-2,0.7-4.1,1.2-6.2,1.7c-5,1.3-6.3,0-4.8-4.7c2.2-6.9,3.9-13.9,5.6-21c0.6-2.6,1.2-5.1,1.7-7.7c0.8-4.2,3.1-7.2,6.9-9.1
		c5.2-2.6,10.4-5,15.4-8c10.2-6.2,19.4-13.6,27.7-22.2c2.7-2.8,5.1-6,7.7-9c1.3-1.5,2.6-3,3.9-4.4c0.8-0.8,1.7-1.7,3-1.1
		c1.1,0.5,0.8,1.7,1,2.6C458.7,683.1,458.4,688.7,458.5,695.4z"/>
	<path class="st1" d="M229.4,677.1c1.8-0.3,2.4,0.9,3.1,1.7c14.4,19,33.1,32.4,54.7,42.1c3.9,1.7,6.3,4.2,7.1,8.2
		c2.2,10.3,4.8,20.5,7.9,30.6c1.2,3.7,0,4.8-4,3.7c-16.9-4.4-32.8-10.9-47.7-20c-6.8-4.1-12.9-9.1-19.4-13.7
		c-3.3-2.3-4.7-5.8-3.9-9.5c1.1-4.9,0.6-9.9,0.7-14.8c0.1-6.6,0.1-13.2,0-19.8C227.8,682.5,228.6,679.8,229.4,677.1z"/>
	<path class="st1" d="M254.5,527.4c6.9,0.5,14.5,0.1,22.1,0.2c1.3,0,2.6-0.3,3.7,0.7c2.1,2.1,1.5,5.8-1.4,6.2
		c-5.8,0.7-8.3,3.2-7.5,9.2c0.3,2.5-1.7,3.2-3.5,1.4c-5.2-5.1-10.3-10.3-15.4-15.4c-0.6-0.6-1-1.4-0.5-2.2
		C252.5,526.9,253.2,526.9,254.5,527.4z"/>
	<path class="st1" d="M433.2,527.5c-5.4,5.3-10.7,10.7-16.1,16c-0.7-0.7-1.1-0.9-1.2-1.1c-0.7-1.9,0.4-4-0.9-5.7
		c-1.3-1.7-3.4-0.8-5.1-1.2c-2.2-0.6-3.4-2.3-3.1-4.4c0.3-2.2,1.5-3.5,4-3.4c2.6,0.1,5.3,0,7.9,0c4.7,0,9.4,0.4,14-1.1
		C432.9,526.8,433.1,527.2,433.2,527.5z"/>
	<path class="st1" d="M392.9,535.5c-0.2,0-0.3,0-0.5,0c-5.8-0.1-7.1-1.6-6.4-7.5c0.3-2.7,1.2-3.6,3.8-3.2c2.6,0.4,5.2,0.9,7.8,1
		c2.3,0.1,3.1,1.7,3.2,4.7c0,3-0.8,4.7-2.9,4.9C396.2,535.6,394.5,535.5,392.9,535.5C392.9,535.5,392.9,535.5,392.9,535.5z"/>
	<path class="st1" d="M294.7,534.6c-0.8,0-1.6,0-2.5,0c-3.8-0.1-4.3-0.5-4.6-3.5c-0.3-3.8,0.3-4.7,3.9-5.4c1.6-0.3,3.2-0.8,4.8-1
		c3-0.4,4.7,1,5.1,3.9c0.1,0.8,0,1.6,0,2.5c0.2,2.4-0.7,3.7-3.3,3.5C297,534.5,295.8,534.6,294.7,534.6z"/>
	<path class="st1" d="M196.8,742.5c0.8-0.3,1.1,0.2,1.3,0.6c0.3,0.7-0.1,1.4-0.7,1.6c-0.7,0.2-1.3-0.1-1.4-0.9
		C196,743.1,196.3,742.6,196.8,742.5z"/>
</g>
</svg>
