<svg xmlns="http://www.w3.org/2000/svg" width="240" height="240" viewBox="203 -0.5 513 513" preserveAspectRatio="xMidYMid meet"><g transform="translate(0.000000,512.000000) scale(0.100000,-0.100000)" fill="#000000" stroke="none"><path d="M4555 5106 c-46 -21 -1712 -1695 -1717 -1726 -12 -70 38 -130 108 -130 34 0 47 9 151 112 l113 112 0 -681 0 -681 -32 -13 c-18 -7 -106 -61 -195 -121 -90 -59 -180 -112 -200 -117 -60 -17 -167 -13 -220 7 -27 10 -118 65 -203 122 -162 108 -226 140 -285 140 l-35 0 0 -105 c0 -96 2 -105 19 -105 10 0 95 -50 187 -111 93 -61 189 -120 214 -131 69 -30 195 -50 270 -43 121 13 178 38 370 165 152 100 188 120 220 120 32 0 66 -19 206 -111 93 -61 189 -120 214 -131 69 -30 195 -50 270 -43 121 13 178 38 370 165 152 100 188 120 220 120 31 0 68 -20 218 -119 221 -144 276 -166 427 -164 150 1 199 21 415 163 152 100 188 120 220 120 31 0 68 -20 218 -119 221 -144 276 -166 427 -164 150 1 199 21 415 163 100 66 190 120 201 120 17 0 19 8 19 105 l0 105 -32 0 c-62 -1 -133 -36 -300 -147 -92 -62 -185 -117 -205 -122 -60 -17 -167 -13 -220 7 -27 10 -117 65 -202 121 -85 57 -169 110 -189 118 l-34 14 5 92 c4 51 6 355 7 676 l0 585 113 -112 c104 -103 117 -112 151 -112 70 0 120 60 108 130 -6 32 -1672 1706 -1719 1726 -39 17 -50 17 -88 0z m636 -833 l586 -588 -5 -787 c-3 -637 -7 -788 -17 -788 -7 0 -95 -54 -195 -120 -100 -66 -200 -125 -223 -131 -71 -19 -184 -8 -249 24 l-57 28 -3 502 c-3 542 -2 530 -57 559 -35 19 -707 19 -742 0 -55 -29 -54 -17 -57 -558 l-3 -501 -51 -28 c-63 -35 -180 -46 -255 -24 -28 7 -116 58 -213 122 -91 61 -180 116 -199 124 l-34 15 7 786 7 787 582 583 c320 320 584 582 587 582 3 0 269 -264 591 -587z m-381 -1854 c0 -193 -3 -349 -7 -347 -98 50 -108 53 -203 53 -95 0 -105 -3 -202 -53 -5 -2 -8 154 -8 347 l0 351 210 0 210 0 0 -351z"></path><path d="M2040 1210 c0 -107 1 -110 22 -110 12 0 97 -49 188 -110 91 -60 183 -117 205 -126 150 -63 340 -58 474 11 25 13 114 69 196 124 202 136 186 136 404 -8 237 -157 295 -178 468 -169 133 7 181 27 386 164 227 151 208 150 422 8 87 -59 182 -117 210 -130 78 -34 164 -47 268 -42 124 7 183 33 387 168 220 146 202 146 415 4 222 -149 286 -174 443 -174 142 0 203 25 422 170 91 61 176 110 188 110 21 0 22 3 22 110 l0 111 -37 -6 c-79 -14 -113 -30 -276 -138 -180 -118 -242 -146 -323 -147 -88 0 -145 25 -321 141 -175 117 -206 132 -290 144 -93 12 -158 -13 -335 -130 -201 -133 -225 -145 -307 -152 -106 -9 -155 11 -353 142 -290 191 -344 192 -620 10 -201 -133 -225 -145 -307 -152 -105 -9 -156 11 -346 137 -91 60 -182 117 -202 126 -47 20 -173 23 -228 5 -22 -7 -116 -63 -208 -124 -180 -118 -242 -146 -323 -147 -88 0 -145 25 -320 141 -171 114 -210 133 -281 143 l-43 6 0 -110z"></path><path d="M2040 396 l0 -106 28 -6 c15 -4 94 -52 177 -107 82 -55 178 -113 213 -129 132 -60 312 -60 444 0 35 16 133 75 218 132 207 139 193 139 400 0 85 -57 183 -116 218 -132 132 -60 312 -60 444 0 35 16 133 75 218 132 207 139 193 139 400 0 85 -57 182 -116 215 -131 134 -61 321 -61 450 0 34 15 131 75 216 132 206 138 192 138 399 -1 85 -57 182 -116 215 -131 134 -61 321 -61 450 0 34 15 129 73 211 128 82 55 161 103 177 107 l27 6 0 106 0 107 -51 -7 c-67 -9 -102 -28 -282 -148 -82 -55 -168 -106 -190 -115 -52 -19 -168 -21 -222 -3 -22 7 -116 62 -210 124 -201 132 -210 136 -295 143 -104 9 -156 -12 -346 -138 -92 -61 -186 -118 -208 -126 -52 -19 -169 -21 -221 -4 -22 8 -121 67 -221 132 -200 131 -239 146 -351 136 -76 -7 -102 -20 -301 -151 -86 -57 -175 -110 -197 -117 -51 -16 -159 -16 -210 0 -22 8 -121 67 -221 132 -200 131 -239 146 -351 136 -76 -8 -108 -23 -296 -149 -82 -55 -168 -106 -190 -115 -52 -19 -168 -21 -222 -3 -22 7 -116 62 -210 124 -193 126 -205 133 -275 142 l-50 7 0 -107z"></path></g></svg>